<svg xmlns="http://www.w3.org/2000/svg" width="192" height="192" viewBox="0 0 192 192">
  <rect width="192" height="192" rx="24" fill="#0B3D91"/>
  <g stroke="#fff" stroke-width="2" fill="none" opacity="0.3">
    <line x1="32" y1="48" x2="160" y2="48"/>
    <line x1="32" y1="96" x2="160" y2="96"/>
    <line x1="32" y1="144" x2="160" y2="144"/>
    <line x1="48" y1="32" x2="48" y2="160"/>
    <line x1="96" y1="32" x2="96" y2="160"/>
    <line x1="144" y1="32" x2="144" y2="160"/>
  </g>
  <g stroke="#fff" stroke-width="3" fill="none">
    <circle cx="48" cy="48" r="8"/>
    <circle cx="144" cy="48" r="8"/>
    <circle cx="96" cy="96" r="8"/>
    <circle cx="48" cy="144" r="8"/>
    <circle cx="144" cy="144" r="8"/>
    <line x1="56" y1="48" x2="136" y2="48"/>
    <line x1="48" y1="56" x2="48" y2="136"/>
    <line x1="144" y1="56" x2="144" y2="136"/>
    <line x1="56" y1="144" x2="136" y2="144"/>
    <line x1="55" y1="55" x2="89" y2="89"/>
    <line x1="137" y1="55" x2="103" y2="89"/>
    <line x1="55" y1="137" x2="89" y2="103"/>
    <line x1="137" y1="137" x2="103" y2="103"/>
  </g>
  <text x="96" y="108" text-anchor="middle" font-family="system-ui,sans-serif" font-size="14" font-weight="bold" fill="#fff" dominant-baseline="middle">M</text>
</svg>
